<?xml version="1.0" standalone="no"?>
<!DOCTYPE svg PUBLIC "-//W3C//DTD SVG 20010904//EN"
 "http://www.w3.org/TR/2001/REC-SVG-20010904/DTD/svg10.dtd">
<svg version="1.0" xmlns="http://www.w3.org/2000/svg"
 width="120.000000pt" height="120.000000pt" viewBox="0 0 120.000000 120.000000"
 preserveAspectRatio="xMidYMid meet">
<metadata>
Created by potrace 1.11, written by Peter Selinger 2001-2013
</metadata>
<g transform="translate(0.000000,120.000000) scale(0.100000,-0.100000)"
fill="#000000" stroke="none">
<path d="M500 1093 c-8 -3 -22 -7 -30 -10 -8 -4 -18 -5 -22 -5 -5 1 -8 -3 -8
-8 0 -6 -11 -23 -25 -38 -15 -16 -21 -30 -16 -35 13 -13 2 -38 -13 -30 -6 3
-1 -4 12 -16 12 -12 22 -27 22 -33 0 -7 -7 -3 -16 8 -15 19 -15 19 -5 -1 5
-11 20 -29 32 -40 24 -20 24 -20 9 0 -14 20 -14 20 7 1 13 -10 21 -22 18 -25
-2 -4 5 -7 15 -7 13 0 16 4 10 11 -11 13 17 14 38 1 6 -4 12 -2 12 3 0 6 7 11
15 11 8 0 15 5 15 11 0 5 4 8 8 5 13 -8 50 65 48 95 -1 23 -45 105 -46 85 0
-5 -6 -3 -14 3 -17 14 -45 20 -66 14z"/>
<path d="M688 1082 c-16 -9 -28 -21 -28 -26 0 -5 -8 -15 -17 -23 -10 -8 -12
-12 -5 -8 6 3 12 1 12 -4 0 -6 -4 -11 -8 -11 -5 0 -9 -7 -9 -15 0 -8 4 -12 8
-9 8 4 25 -35 21 -49 -1 -4 7 -3 18 3 17 9 21 9 18 -4 -2 -8 2 -14 7 -13 6 1
9 6 7 10 -1 5 3 7 10 4 7 -2 12 -10 10 -16 -1 -7 2 -10 7 -6 6 3 7 13 4 22 -4
10 -2 14 4 10 15 -9 56 42 56 69 0 30 -29 74 -47 74 -8 0 -20 2 -28 5 -7 2
-25 -3 -40 -13z"/>
<path d="M883 1084 c-20 -10 -33 -24 -33 -36 0 -10 -4 -17 -8 -14 -5 3 -9 -1
-9 -9 0 -8 5 -15 11 -15 6 0 4 -5 -4 -10 -9 -6 -10 -10 -3 -10 6 0 15 -10 18
-21 5 -15 10 -18 15 -9 5 8 9 7 14 -5 5 -15 8 -15 21 -1 8 8 24 13 34 11 15
-3 23 6 34 33 13 32 13 41 1 65 -8 15 -19 27 -23 27 -5 0 -15 2 -23 5 -7 2
-28 -3 -45 -11z"/>
<path d="M195 1060 c-3 -4 -16 -11 -30 -14 -22 -6 -83 -56 -68 -56 4 0 -3 -10
-15 -23 -19 -20 -20 -28 -12 -57 13 -46 13 -47 -6 -24 -14 18 -14 18 -3 -6 7
-14 17 -28 23 -32 7 -5 6 -8 -3 -8 -9 0 -6 -7 8 -19 14 -13 20 -25 15 -33 -6
-10 -4 -10 9 1 17 13 22 7 18 -21 0 -4 6 -5 14 -2 9 4 21 1 29 -5 7 -6 16 -7
20 -3 11 10 30 9 38 -3 5 -6 8 -6 8 2 0 6 9 10 20 8 11 -2 18 0 15 4 -2 5 2
14 10 21 13 11 15 10 9 -6 -5 -17 -4 -17 6 1 7 11 19 25 26 31 22 18 42 76 40
116 -3 42 -26 81 -62 104 -29 19 -102 35 -109 24z"/>
<path d="M887 909 c-9 -9 -13 -20 -10 -23 3 -3 -2 -8 -11 -12 -9 -3 -16 -10
-16 -16 0 -5 5 -6 10 -3 14 9 12 -9 -2 -24 -11 -10 -10 -11 3 -6 10 4 20 1 25
-6 5 -8 3 -10 -6 -4 -8 5 -11 4 -7 -3 4 -5 17 -8 29 -4 16 4 19 2 14 -9 -4 -8
0 -5 9 6 9 11 21 19 26 17 17 -4 31 50 20 75 -6 13 -14 24 -18 24 -38 6 -53 4
-66 -12z"/>
<path d="M741 891 c-11 -11 -22 -16 -26 -13 -3 4 -3 -1 1 -11 8 -21 -12 -23
-32 -2 -14 14 -44 20 -69 15 -5 -1 -17 -2 -27 -3 -9 -1 -14 -5 -11 -11 4 -5
-1 -7 -10 -3 -12 4 -14 2 -10 -10 4 -11 2 -14 -5 -9 -8 4 -10 2 -6 -7 3 -8 1
-18 -5 -22 -8 -4 -8 -12 -1 -26 7 -13 7 -19 0 -19 -5 0 -10 -4 -10 -10 0 -5 8
-7 18 -4 13 5 14 4 3 -4 -9 -7 -10 -12 -2 -16 6 -4 11 -4 12 1 0 4 4 -2 10
-15 5 -13 13 -21 17 -18 5 3 20 7 35 10 32 6 76 36 77 54 0 6 4 12 10 12 5 0
7 6 4 14 -3 8 0 17 6 21 6 4 9 1 8 -7 -2 -7 2 -12 9 -11 7 2 10 -4 7 -12 -5
-13 -2 -13 29 0 19 8 38 11 42 7 5 -4 5 -1 1 6 -4 6 -3 12 3 12 20 0 24 49 7
75 -20 30 -58 33 -85 6z"/>
<path d="M385 796 c-39 -17 -68 -50 -71 -81 -1 -14 1 -23 5 -21 4 3 8 -1 8 -9
0 -8 -4 -12 -9 -9 -4 3 -8 0 -8 -6 0 -6 7 -13 15 -16 8 -4 12 -10 9 -15 -3 -5
0 -9 6 -9 6 0 8 -5 4 -12 -5 -8 -2 -9 10 -5 11 5 15 3 10 -5 -5 -7 -2 -9 9 -5
9 3 18 0 21 -9 4 -11 10 -12 23 -5 10 6 34 17 53 26 66 29 82 117 29 166 -34
32 -66 36 -114 15z m-45 -56 c0 -5 -5 -10 -11 -10 -5 0 -7 5 -4 10 3 6 8 10
11 10 2 0 4 -4 4 -10z"/>
<path d="M909 769 c-8 -5 -10 -9 -6 -9 4 0 2 -6 -5 -14 -7 -8 -16 -12 -20 -10
-3 2 -1 -7 5 -20 13 -28 50 -56 41 -31 -4 10 -2 13 8 10 9 -4 21 4 31 18 13
21 14 28 3 43 -15 20 -37 26 -57 13z"/>
<path d="M791 739 c-23 -25 -26 -35 -11 -44 6 -4 8 -10 5 -15 -3 -5 -1 -11 5
-15 6 -4 8 -12 4 -18 -3 -7 2 -3 10 7 9 11 16 16 16 11 0 -4 8 2 19 13 10 12
20 19 23 16 3 -3 8 2 12 11 3 9 2 13 -4 10 -6 -3 -10 3 -10 14 0 12 -4 21 -9
21 -5 0 -16 3 -24 6 -8 3 -24 -5 -36 -17z"/>
<path d="M136 718 c-9 -5 -16 -6 -16 -3 0 4 -16 -10 -35 -31 -19 -20 -32 -40
-29 -45 3 -5 -3 -9 -13 -9 -12 0 -14 -3 -6 -8 7 -4 13 -24 15 -44 2 -31 28
-89 28 -62 0 6 -6 16 -12 24 -11 12 -10 12 4 1 10 -7 18 -20 18 -28 0 -8 5
-11 10 -8 6 3 10 0 10 -7 0 -11 2 -10 9 0 7 11 9 11 14 -2 4 -11 -4 -20 -27
-31 -19 -9 -36 -25 -39 -37 -4 -13 -10 -17 -19 -13 -10 6 -10 5 -1 -5 10 -11
9 -16 -5 -27 -9 -8 -11 -12 -4 -8 8 4 12 -2 12 -19 0 -14 4 -26 10 -26 5 0 17
-12 25 -27 9 -16 14 -20 11 -11 -3 10 -1 18 4 18 6 0 10 -5 10 -11 0 -8 6 -7
17 2 15 12 16 12 9 -5 -7 -19 -6 -19 14 -1 11 10 20 15 20 10 0 -4 13 9 29 29
16 20 28 44 26 54 -2 9 -4 22 -4 28 -1 18 -37 54 -54 54 -17 0 -30 27 -17 35
5 3 19 1 30 -5 16 -8 20 -8 18 2 -2 7 5 12 15 12 9 -1 17 3 17 9 0 6 8 19 17
29 9 10 18 39 19 63 2 38 -2 49 -28 75 -16 16 -33 31 -36 31 -30 6 -52 5 -66
-3z"/>
<path d="M669 723 c-1 -5 -1 -12 0 -17 1 -4 -2 -13 -7 -20 -5 -6 -9 -29 -10
-51 -2 -30 0 -36 8 -25 5 8 10 10 10 4 0 -7 7 -15 16 -18 14 -5 15 -4 5 8 -10
12 -9 13 8 9 25 -6 47 10 67 48 14 27 13 29 -17 45 -18 9 -41 13 -56 9 -16 -4
-22 -2 -18 5 3 5 4 10 1 10 -3 0 -7 -3 -7 -7z"/>
<path d="M635 700 c-3 -5 -1 -10 4 -10 6 0 11 5 11 10 0 6 -2 10 -4 10 -3 0
-8 -4 -11 -10z"/>
<path d="M510 618 c-19 -17 -29 -28 -23 -24 10 5 11 1 5 -16 -10 -28 -5 -58
10 -58 7 0 6 -5 -1 -14 -10 -12 -7 -14 21 -12 19 2 40 -3 51 -12 9 -8 18 -12
18 -9 1 4 2 13 3 20 1 6 7 11 13 10 17 -3 42 56 37 90 -7 61 -78 75 -134 25z"/>
<path d="M924 634 c-10 -8 -12 -13 -4 -9 10 4 9 1 -3 -8 -17 -14 -17 -15 2
-20 22 -5 51 21 44 41 -6 16 -15 15 -39 -4z"/>
<path d="M825 593 c-14 -31 -13 -40 1 -40 11 0 11 3 1 15 -10 13 -9 14 8 5 22
-12 45 3 37 25 -6 18 -39 15 -47 -5z"/>
<path d="M350 583 c-14 -3 -29 -11 -33 -19 -4 -8 -15 -14 -22 -14 -8 0 -14 -6
-12 -12 1 -7 -4 -12 -11 -10 -9 2 -11 -2 -6 -10 5 -7 7 -23 5 -35 -1 -14 3
-23 11 -23 10 0 10 -2 -1 -9 -11 -7 -9 -10 7 -15 25 -8 36 -32 18 -39 -8 -3
-24 -20 -37 -38 -12 -18 -16 -29 -8 -24 12 8 12 6 0 -8 -9 -11 -10 -17 -2 -17
6 0 11 -5 11 -11 0 -5 -5 -7 -12 -3 -7 4 -8 3 -4 -5 4 -6 11 -9 16 -6 5 3 13
-2 18 -11 6 -11 11 -13 16 -5 5 7 15 6 34 -6 26 -17 26 -17 13 0 -11 14 -11
17 1 17 21 0 44 31 46 60 1 15 -9 37 -23 52 -23 25 -23 26 -4 31 12 3 17 1 13
-6 -4 -7 4 -1 17 13 13 13 23 28 21 32 -1 5 2 8 8 8 6 0 10 15 10 33 -1 34
-19 67 -39 67 -6 0 -11 5 -11 10 0 6 -3 9 -7 9 -5 -1 -19 -4 -33 -6z"/>
<path d="M749 554 c-18 -21 -21 -51 -7 -60 7 -4 8 -3 4 4 -4 7 -1 12 7 12 25
0 37 23 22 43 -11 16 -14 16 -26 1z"/>
<path d="M918 509 c-105 -215 -198 -415 -198 -425 0 -2 11 -4 25 -4 20 0 30
12 62 77 l38 78 100 0 100 1 35 -78 c31 -69 38 -78 62 -78 l28 0 -24 52 c-54
119 -123 268 -162 347 l-40 84 -26 -54z m64 -141 c18 -40 31 -75 28 -78 -8 -8
-117 -8 -129 0 -8 5 -1 27 22 73 19 36 32 68 29 71 -3 3 0 6 6 6 6 0 25 -32
44 -72z"/>
<path d="M501 471 c-17 -9 -29 -20 -25 -24 4 -4 2 -7 -4 -7 -6 0 -9 -7 -5 -17
4 -9 2 -14 -3 -10 -5 3 -10 -3 -10 -13 0 -10 4 -16 8 -14 4 3 8 -3 8 -13 0
-15 2 -16 10 -3 8 13 10 13 10 -1 0 -9 7 -16 15 -16 8 0 15 5 15 10 0 5 9 7
21 4 12 -3 19 -3 16 -1 -3 3 1 17 8 31 15 28 10 50 -15 74 -15 15 -19 15 -49
0z"/>
<path d="M661 477 c-8 -8 -8 -14 0 -24 17 -20 38 -16 36 7 -2 23 -20 33 -36
17z"/>
<path d="M650 435 c33 -19 49 -19 24 0 -10 8 -26 14 -34 14 -9 0 -4 -6 10 -14z"/>
<path d="M613 363 c-4 -10 -11 -22 -17 -26 -6 -5 0 -5 13 -2 18 6 22 4 16 -6
-5 -8 1 -5 13 5 12 11 22 25 22 33 0 19 -40 16 -47 -4z"/>
<path d="M454 315 c-16 -15 -21 -26 -14 -30 8 -5 8 -11 -1 -21 -9 -11 -8 -14
6 -14 11 0 15 -5 11 -15 -3 -8 -1 -15 3 -15 5 0 12 7 15 16 3 8 11 12 17 9 14
-9 38 24 39 52 0 41 -40 51 -76 18z"/>
<path d="M595 273 c-5 -15 11 -53 22 -53 3 0 3 3 0 7 -4 3 0 11 9 17 17 13 10
43 -11 43 -8 0 -17 -7 -20 -14z"/>
<path d="M68 239 c-18 -17 -27 -28 -20 -24 6 3 12 1 12 -4 0 -6 -4 -11 -8 -11
-10 0 -8 -27 2 -52 5 -10 14 -14 23 -11 9 4 14 2 10 -3 -3 -6 7 -10 23 -9 16
0 27 2 24 4 -2 2 7 13 20 25 36 31 42 66 16 94 -29 31 -64 28 -102 -9z"/>
<path d="M293 240 c-13 -15 -23 -34 -23 -40 0 -7 -7 -10 -14 -7 -10 4 -13 1
-9 -9 3 -7 9 -14 14 -14 5 0 9 -10 9 -22 0 -12 3 -18 6 -15 4 3 14 2 24 -3 22
-12 70 32 70 64 0 26 -33 61 -49 51 -7 -3 -8 0 -5 9 9 23 2 19 -23 -14z"/>
<path d="M466 204 c-3 -8 -9 -13 -14 -10 -6 4 -7 -11 -3 -58 1 -5 9 -2 18 5 9
8 14 9 10 3 -4 -7 0 -15 9 -18 9 -3 12 -2 9 5 -4 6 2 13 14 16 16 4 21 13 21
39 0 31 -3 34 -29 34 -17 0 -31 -6 -35 -16z"/>
<path d="M602 179 c-16 -25 -15 -26 7 -32 19 -5 41 9 41 25 0 4 -8 12 -18 17
-14 7 -21 5 -30 -10z"/>
</g>
</svg>
